<?xml version="1.0" ?><!DOCTYPE svg  PUBLIC '-//W3C//DTD SVG 1.1//EN'  'http://www.w3.org/Graphics/SVG/1.1/DTD/svg11.dtd'><svg enable-background="new 0 0 32 32" height="32px" version="1.1" viewBox="0 0 32 32" width="32px" xml:space="preserve" xmlns="http://www.w3.org/2000/svg" xmlns:xlink="http://www.w3.org/1999/xlink"><g id="Guides"/><g id="Mail"/><g id="Cloud"/><g id="Home"/><g id="Back"/><g id="Next"/><g id="Reload"/><g id="Buble"/><g id="Accept"/><g id="Reject"/><g id="User"/><g id="Download"/><g id="Upload"/><g id="Camera"/><g id="Notification"/><g id="About"/><g id="Search"><path d="M27.0215,24.6064l-4.9961-4.9961C23.2578,18.0703,24,16.1211,24,14c0-4.9629-4.0376-9-9-9s-9,4.0371-9,9s4.0376,9,9,9   c2.1221,0,4.0713-0.7422,5.6113-1.9756l4.9961,4.9961c0.1953,0.1953,0.4512,0.293,0.707,0.293s0.5117-0.0977,0.707-0.293   C27.4121,25.6299,27.4121,24.9971,27.0215,24.6064z M8,14c0-3.8594,3.1401-7,7-7s7,3.1406,7,7s-3.1401,7-7,7S8,17.8594,8,14z"/></g><g id="Cart"/><g id="Sound"/><g id="List"/><g id="Settings"/></svg>